<?xml version="1.0" encoding="utf-8"?>
<!-- Generator: Adobe Illustrator 24.3.0, SVG Export Plug-In . SVG Version: 6.00 Build 0)  -->
<svg width="56" height="56" version="1.1"
	 id="Layer_1" xmlns:cc="http://creativecommons.org/ns#" xmlns:dc="http://purl.org/dc/elements/1.1/" xmlns:rdf="http://www.w3.org/1999/02/22-rdf-syntax-ns#"
	 xmlns="http://www.w3.org/2000/svg" xmlns:xlink="http://www.w3.org/1999/xlink" x="0px" y="0px" viewBox="0 0 56 56"
	 style="enable-background:new 0 0 56 56;" xml:space="preserve">
<style type="text/css">
	.st0{fill:#F2C8B0;}
	.st1{fill:#F827F6;}
	.st2{fill:#7BB8E3;}
	.st3{fill:#C89E8A;}
	.st4{fill:#A39E9C;}
	.st5{fill:#AB5A50;}
	.st6{fill:#007BFF;}
</style>
<path class="st0" d="M25.9,50.2c-3.7-0.2-6.9-0.8-9.3-1.8c-1.6-0.7-2.8-1.6-3.2-2.4c-0.2-0.5-0.2-1.2,0-1.8c0.6-1.2,2.4-2.3,5.1-3.1
	c0.6-0.2,2.7-0.7,2.9-0.7c0,0,0-0.8,0-1.8v-1.8L20.8,37c-0.3,0.1-0.9,0.1-1.6,0.1c-1.3,0-1.9-0.1-2.8-0.6c-1-0.5-1.8-1.3-2.5-2.5
	c-0.9-1.5-1.4-2.1-2.4-2.7c-0.7-0.4-1-0.7-1-0.9c0-0.3,0.3-0.4,0.8-0.4c0.6,0,1.1,0.1,1.8,0.4c0.8,0.4,1.3,0.9,2,1.9
	c1.2,1.7,2.2,2.3,3.9,2.3c0.7,0,1.4-0.1,2.2-0.5c0.4-0.2,0.4-0.2,0.5-0.6c0.2-0.8,0.7-1.5,1.3-2.1l0.4-0.4l-0.9-0.1
	c-2.5-0.3-4.8-1.1-6.4-2.2c-1-0.7-2.3-2.1-2.7-2.9c-0.1-0.2-0.1-0.2-0.6-0.2c-0.7,0-3,0.2-4.2,0.3c-2,0.2-4.3,0.6-6,1.1
	c-0.7,0.2-1,0.2-0.9,0c0,0,0.6-0.2,1.2-0.4c2.3-0.6,5-1,7.5-1.2c0.8-0.1,1.7-0.1,2.1-0.2l0.6,0l-0.4-0.9l-2.1,0
	c-3.1,0-5.5,0.2-8,0.6c-0.6,0.1-1,0.2-1,0.1c-0.1-0.1,0.1-0.2,0.3-0.3c2.9-0.5,6.3-0.8,9.3-0.7c1.3,0,1.5,0,1.4-0.1
	c-0.5-1.7-0.7-3-0.7-5c0-1.4,0-1.7,0.2-2.3c0.3-1.5,0.9-2.8,1.8-4l0.5-0.7l-0.1-0.4c-0.3-0.8-0.3-1.6-0.3-2.7c0-1.1,0.1-1.7,0.5-2.8
	l0.2-0.7l0.6,0c1.3,0,3.4,0.8,5.6,2.2l0.6,0.4L22,8c1.8-0.4,3.5-0.6,5.5-0.6c1.7,0,3,0.1,4.6,0.4l1,0.2l0.6-0.4
	c2.1-1.3,4.1-2.1,5.4-2l0.6,0l0.2,0.7c0.4,1.2,0.5,1.7,0.5,3.1c0,0.9,0,1.4-0.1,1.8l-0.1,0.6l0.4,0.4c1,1.1,1.9,2.8,2.2,4.3
	c0.3,1.6,0.3,5-0.1,7c-0.1,0.4-0.1,0.7-0.1,0.7c0,0,0.7,0,1.6,0c3-0.1,6.4,0.2,9.4,0.7c0.2,0,0.4,0.2,0.3,0.3c0,0-0.5,0-1-0.1
	c-2.5-0.4-4.9-0.6-8.1-0.6l-2.3,0L42,25.3l0.2,0c0.1,0,0.7,0,1.4,0.1c3.2,0.2,6.2,0.6,8.8,1.3c1.2,0.3,1.3,0.4,1.2,0.5
	c0,0-0.5,0-1.2-0.2c-2.8-0.7-6.4-1.2-9.4-1.3l-1.2,0l-0.2,0.3c-0.6,1.2-1.7,2.4-3,3.2c-1.4,0.8-3.6,1.5-5.8,1.8
	c-1,0.1-1,0.1-0.4,0.7c0.6,0.6,1,1.2,1.2,2.2c0.1,0.5,0.2,0.7,0.2,3.6c0,1.7,0,3.1,0.1,3.1s0.5,0.1,1.1,0.2c3.9,0.8,6.5,2.1,7.2,3.6
	c1.2,2.5-2.7,4.8-9.5,5.7C30.8,50.2,27.8,50.3,25.9,50.2L25.9,50.2z M24.4,40.1l0.2,0v-5.5l-0.2,0.2c-0.4,0.4-0.6,1.3-0.6,3.7v1.7
	l0.2,0C24.2,40.1,24.4,40.1,24.4,40.1L24.4,40.1z M31.4,38.1c0-1.6-0.1-2.1-0.2-2.4c-0.1-0.5-0.3-0.9-0.5-1
	c-0.1-0.1-0.1,0.2-0.1,2.6v2.7l0.3,0c0.2,0,0.4,0,0.4,0C31.4,40.1,31.4,39.2,31.4,38.1L31.4,38.1z M27.9,37c0-3.2,0-3.1-0.4-3.1
	l-0.2,0l0,3l0,3h0.6V37z M21.9,26.3c0.7-0.3,1.3-1.2,1.5-2.2c0.1-0.6,0.1-1.7,0-2.3c-0.3-1.4-1.3-2.3-2.3-2.3c-2,0-3.1,3.2-2,5.5
	C19.8,26.3,20.8,26.8,21.9,26.3z M20.8,25.3c-1.1-0.6-1.4-2.6-0.6-3.8c0.4-0.6,1.2-0.9,1.7-0.6c0.9,0.5,1.3,1.9,0.9,3.2
	c-0.2,0.6-0.5,1.1-0.9,1.3C21.5,25.5,21.2,25.5,20.8,25.3L20.8,25.3z M21,22.3c0.2-0.3,0-0.7-0.3-0.7c-0.4,0-0.5,0.4-0.4,0.7
	c0.1,0.1,0.1,0.1,0.3,0.1S21,22.4,21,22.3z M35,26.3c0.9-0.5,1.6-1.9,1.6-3.3c0-2.1-1.3-3.8-2.8-3.5c-0.5,0.1-0.7,0.2-1.1,0.6
	c-0.6,0.7-1,1.7-1,2.9C31.8,25.5,33.4,27.1,35,26.3L35,26.3z M33.5,25.3c-1.2-0.6-1.5-2.6-0.6-3.9c0.4-0.6,1.2-0.8,1.7-0.5
	c0.3,0.2,0.6,0.6,0.8,1c0.2,0.5,0.3,1.5,0.1,2.1C35.2,25.1,34.3,25.7,33.5,25.3L33.5,25.3z M33.7,22.3c0.2-0.1,0.2-0.5,0.1-0.6
	c-0.3-0.2-0.7,0-0.7,0.3c0,0.2,0.2,0.4,0.4,0.4C33.5,22.4,33.6,22.4,33.7,22.3z M10.7,33.1c-0.2-0.2-0.2-0.4-0.1-0.7
	c0-0.1,0.1-0.4,0.2-0.7l0.2-0.5l0.2,0.8c0.2,0.8,0.2,1.1,0,1.3C11.1,33.3,10.9,33.3,10.7,33.1L10.7,33.1z"/>
<path class="st1" d="M25.9,50.2c-3.7-0.2-6.9-0.8-9.3-1.8c-1.6-0.7-2.8-1.6-3.2-2.4c-0.2-0.5-0.2-1.2,0-1.8c0.6-1.2,2.4-2.3,5.1-3.1
	c0.6-0.2,2.7-0.7,2.9-0.7c0,0,0-0.8,0-1.8v-1.8L20.8,37c-1.9,0.3-3.6,0.1-4.9-0.7c-0.7-0.5-1.4-1.2-2.1-2.5
	c-0.8-1.4-1.3-1.9-2.3-2.4c-0.7-0.4-1-0.7-1-0.9c0-0.3,0.5-0.5,1.2-0.5c1.3,0.1,2.4,0.9,3.4,2.3c0.8,1.2,1.6,1.8,2.6,2.2
	c0.9,0.3,2.4,0.2,3.5-0.3c0.3-0.2,0.4-0.2,0.5-0.5c0.2-0.7,0.6-1.5,1.2-2l0.5-0.5l-0.7-0.1c-4.3-0.6-7.5-2.2-9.1-4.7l-0.4-0.6
	l-0.6,0c-2.5,0-7.7,0.7-10.3,1.4c-0.4,0.1-0.7,0.1-0.7,0.1c-0.1-0.1,0-0.2,1.3-0.5c2.7-0.6,5.3-1,8.1-1.2c1.7-0.1,2.1-0.1,2.1-0.2
	c0,0-0.1-0.2-0.2-0.4l-0.2-0.4h-2.3c-3.1,0-5.5,0.2-7.9,0.6c-0.5,0.1-1,0.2-1,0.1c-0.2-0.2,1.1-0.5,3.3-0.7c1.9-0.2,3.2-0.3,5.4-0.3
	c1.3,0,2.3,0,2.3,0c0,0-0.1-0.2-0.1-0.5c-0.4-1.3-0.7-3.9-0.6-5.4c0.1-1.4,0.4-2.8,1-3.8c0.3-0.6,0.9-1.5,1.3-1.9l0.3-0.4l-0.1-0.4
	c-0.5-1.5-0.4-3.7,0.2-5.6l0.2-0.6l0.5,0c1.4-0.1,3.4,0.7,5.7,2.2l0.6,0.4l0.9-0.2c3.2-0.7,7.3-0.8,10.3-0.1L33.1,8l0.7-0.5
	c1.5-1,3.3-1.7,4.4-1.9c0.3,0,0.7-0.1,0.9-0.1l0.5,0l0.2,0.7c0.3,0.9,0.5,2.1,0.5,3c0,0.7-0.1,1.8-0.3,2.2c-0.1,0.2,0,0.2,0.1,0.4
	c0.5,0.4,1.3,1.6,1.7,2.4c0.8,1.5,1,2.7,1,4.8c0,1.9-0.2,3.5-0.4,4.6l-0.1,0.4l2.5,0c3.2,0,5.1,0.1,7.7,0.6c0.8,0.1,1.2,0.2,1.2,0.3
	c0,0.1,0,0.1,0,0.1c0,0-0.5,0-1-0.1c-2.4-0.4-4.8-0.6-8-0.6h-2.4l-0.2,0.4c-0.1,0.2-0.1,0.4-0.1,0.5c0,0,0.6,0,1.3,0.1
	c3.4,0.2,6.2,0.6,9.1,1.3c1.2,0.3,1.4,0.4,1.3,0.5c0,0-0.3,0-0.7-0.1c-2.7-0.7-7-1.3-10.4-1.4l-0.7,0l-0.2,0.4
	c-0.6,1.4-2,2.7-3.6,3.5c-1.5,0.8-3.6,1.3-5.7,1.5C32.3,31,32,31,32,31c0,0,0.1,0.2,0.3,0.4c0.8,0.8,1.3,1.9,1.5,3.1
	c0,0.3,0.1,1.8,0.1,3.3c0,1.5,0,2.6,0,2.6c0.2,0,2.3,0.5,3,0.7c2.8,0.8,4.8,1.9,5.3,3.2c1.2,2.5-2.7,4.8-9.5,5.7
	C30.8,50.2,27.8,50.3,25.9,50.2L25.9,50.2z M24.4,40.1l0.2,0v-5.5l-0.1,0.1c-0.2,0.2-0.3,0.5-0.5,0.9c-0.1,0.3-0.1,0.9-0.1,2.5
	l0,2.1l0.2,0C24.2,40.1,24.4,40.1,24.4,40.1L24.4,40.1z M31.4,38.4c0-1.9-0.1-2.6-0.3-3.2c-0.1-0.2-0.2-0.4-0.3-0.5
	c-0.1-0.1-0.1-0.1-0.1,2.6v2.7l0.3,0c0.2,0,0.4,0,0.4,0C31.4,40.1,31.4,39.3,31.4,38.4L31.4,38.4z M27.9,37c0-2.2,0-2.9-0.1-3
	c-0.1-0.1-0.4-0.1-0.4,0c0,0,0,1.4-0.1,3l0,2.9h0.6L27.9,37z M32.6,29.7c1.1-0.1,1.8-0.3,2.5-0.5c2.6-0.9,3.9-2.7,4.1-5.7
	c0.1-0.8,0-1.4-0.3-2.1c-0.4-1-1.4-2.3-2.3-2.8c-1.1-0.6-2.5-0.8-5.7-0.5c-2.4,0.2-4.4,0.2-6.8,0c-4-0.3-5.3-0.1-6.6,1.2
	c-0.8,0.9-1.4,1.9-1.6,2.9c-0.2,1.1,0.1,2.8,0.7,4c0.3,0.6,1,1.4,1.6,1.8c1.2,0.9,2.9,1.4,5.2,1.7c1.4,0.2,1.4,0.2,5,0.1
	C31,29.8,32,29.8,32.6,29.7L32.6,29.7z M27,28.6c-0.5-0.2-1-0.7-1-1c0-0.2,0.2-0.3,0.3-0.1c0.2,0.4,0.5,0.6,0.8,0.7
	c0.5,0.1,1-0.1,1.2-0.5c0.1-0.2,0.2-0.3,0.4-0.3c0.2,0.1,0.1,0.2-0.1,0.6C28.4,28.6,27.6,28.9,27,28.6z M27.1,26.6
	c-0.1-0.1-0.2-0.2-0.2-0.5c0-0.5,0.4-0.7,0.8-0.6c0.3,0.1,0.3,0.3,0.3,0.6C28.1,26.7,27.5,27,27.1,26.6L27.1,26.6z M21.1,25.4
	c-0.4-0.1-0.6-0.3-0.9-0.7c-0.7-1-0.6-2.8,0.3-3.6c0.3-0.3,0.5-0.4,0.9-0.4c1.6,0,2.2,3.1,0.8,4.3c-0.2,0.1-0.4,0.3-0.5,0.3
	C21.4,25.4,21.3,25.4,21.1,25.4L21.1,25.4z M20.9,22.4c0.3-0.2,0.3-0.7,0-0.8c-0.4-0.1-0.7,0.2-0.6,0.6
	C20.4,22.5,20.6,22.6,20.9,22.4L20.9,22.4z M33.6,25.4c-0.4-0.1-0.6-0.3-0.8-0.7c-0.6-1-0.6-2.6,0.2-3.4c0.5-0.6,1.1-0.7,1.6-0.3
	c0.6,0.4,1,1.2,1,2.2c0,0.8-0.2,1.3-0.6,1.7C34.6,25.3,34.1,25.5,33.6,25.4L33.6,25.4z M33.7,22.3c0.2-0.2,0.1-0.5-0.1-0.6
	c-0.2-0.1-0.2-0.1-0.4,0c-0.2,0.1-0.3,0.5-0.1,0.6C33.3,22.5,33.6,22.5,33.7,22.3z M10.7,33.1c-0.2-0.2-0.2-0.4-0.1-0.7
	c0-0.1,0.1-0.4,0.2-0.7l0.2-0.5l0.2,0.8c0.2,0.8,0.2,1.1,0,1.3C11.1,33.3,10.9,33.3,10.7,33.1L10.7,33.1z"/>
<path class="st2" d="M28,49.2c0-1.5,0.2-2.4,0.7-3c0.1-0.1,0.2-0.2,0.2-0.3c0,0-0.1-0.2-0.3-0.3c-0.1-0.1-0.4-0.5-0.5-0.7l-0.2-0.5
	l0-5.2c0-3.6,0-5.2-0.1-5.3c-0.1-0.1-0.4-0.1-0.4,0c0,0,0,2.3,0,4.9c0,2.8,0,5-0.1,5.3c-0.1,0.5-0.3,1.1-0.7,1.4l-0.2,0.3l0.2,0.3
	c0.5,0.7,0.6,1.3,0.7,2.9l0,1.1h-0.7c-0.4,0-1,0-1.3,0l-0.6,0v-1c0-1,0-1.4-0.2-2c-0.1-0.3-0.1-0.3-0.3-0.3l-0.2,0v3.3l-0.2,0
	c-0.1,0-0.6-0.1-1.1-0.1s-0.9-0.1-1-0.1l-0.2,0v-1.5c0-1.3,0-1.5-0.1-1.9c-0.2-0.5-0.7-1.1-1.3-1.4c-0.8-0.4-0.7-0.8,0.2-1.2
	c0.6-0.3,1-0.8,1.2-1.2c0.1-0.3,0.1-0.7,0.1-3v-2.6L20.8,37c-1.9,0.3-3.6,0.1-4.9-0.7c-0.7-0.5-1.4-1.2-2.1-2.5
	c-0.8-1.4-1.3-1.9-2.3-2.4c-0.7-0.4-1-0.7-1-0.9c0-0.3,0.5-0.5,1.2-0.5c1.3,0.1,2.4,0.9,3.4,2.3c0.8,1.2,1.6,1.8,2.6,2.2
	c0.9,0.3,2.4,0.2,3.5-0.3c0.3-0.2,0.4-0.2,0.5-0.5c0.2-0.7,0.6-1.5,1.2-2l0.5-0.5l-0.7-0.1c-4.3-0.6-7.5-2.2-9.1-4.7l-0.4-0.6
	l-0.6,0c-2.5,0-7.7,0.7-10.3,1.4c-0.4,0.1-0.7,0.1-0.7,0.1c-0.1-0.1,0-0.2,1.3-0.5c2.7-0.6,5.3-1,8.1-1.2c1.7-0.1,2.1-0.1,2.1-0.2
	c0,0-0.1-0.2-0.2-0.4l-0.2-0.4h-2.3c-3.1,0-5.5,0.2-7.9,0.6c-0.5,0.1-1,0.2-1,0.1c-0.2-0.2,1.1-0.5,3.3-0.7c1.9-0.2,3.2-0.3,5.4-0.3
	c1.3,0,2.3,0,2.3,0c0,0-0.1-0.2-0.1-0.5c-0.4-1.3-0.7-3.9-0.6-5.4c0.1-1.4,0.4-2.8,1-3.8c0.3-0.6,0.9-1.5,1.3-1.9l0.3-0.4l-0.1-0.4
	c-0.5-1.5-0.4-3.7,0.2-5.6l0.2-0.6l0.5,0c1.4-0.1,3.4,0.7,5.7,2.2l0.6,0.4l0.9-0.2c3.2-0.7,7.3-0.8,10.3-0.1L33.1,8l0.7-0.5
	c1.5-1,3.3-1.7,4.4-1.9c0.3,0,0.7-0.1,0.9-0.1l0.5,0l0.2,0.7c0.3,0.9,0.5,2.1,0.5,3c0,0.7-0.1,1.8-0.3,2.2c-0.1,0.2,0,0.2,0.1,0.4
	c0.5,0.4,1.3,1.6,1.7,2.4c0.8,1.5,1,2.7,1,4.8c0,1.9-0.2,3.5-0.4,4.6l-0.1,0.4l2.5,0c3.2,0,5.1,0.1,7.7,0.6c0.8,0.1,1.2,0.2,1.2,0.3
	c0,0.1,0,0.1,0,0.1c0,0-0.5,0-1-0.1c-2.4-0.4-4.8-0.6-8-0.6h-2.4l-0.2,0.4c-0.1,0.2-0.1,0.4-0.1,0.5c0,0,0.6,0,1.3,0.1
	c3.4,0.2,6.2,0.6,9.1,1.3c1.2,0.3,1.4,0.4,1.3,0.5c0,0-0.3,0-0.7-0.1c-2.7-0.7-7-1.3-10.4-1.4l-0.7,0l-0.2,0.4
	c-0.6,1.4-2,2.7-3.6,3.5c-1.5,0.8-3.6,1.3-5.7,1.5C32.3,31,32,31,32,31c0,0,0.1,0.2,0.3,0.4c0.7,0.6,1.1,1.3,1.4,2.4
	c0.1,0.5,0.1,0.8,0.2,4.5l0,4l0.2,0.4c0.2,0.5,0.6,1,1,1.1c0.8,0.4,0.9,0.9,0.1,1.3c-0.5,0.2-0.9,0.7-1.1,1.2
	c-0.2,0.4-0.2,0.4-0.2,2l0,1.6l-0.8,0.1c-0.4,0.1-1,0.1-1.3,0.2l-0.4,0v-3.4h-0.2c-0.2,0-0.2,0-0.3,0.3c-0.2,0.5-0.3,1.2-0.3,2.2
	l0,0.9l-0.4,0c-0.2,0-0.8,0.1-1.3,0.1l-0.9,0L28,49.2z M23.9,45.5c0.4-0.2,0.5-0.5,0.6-1.1c0-0.3,0.1-2.2,0.1-5.2l0-4.8l-0.1,0.1
	c-0.2,0.2-0.3,0.5-0.5,0.9c-0.1,0.3-0.1,1-0.1,3.7c0,3-0.1,3.4-0.2,3.7c-0.2,0.5-0.6,1-1.2,1.3l-0.3,0.2l0.5,0.3
	c0.3,0.2,0.6,0.4,0.7,0.6c0.1,0.2,0.3,0.3,0.3,0.3S23.7,45.7,23.9,45.5L23.9,45.5z M32,45.3c0.2-0.2,0.6-0.5,0.7-0.6
	c0.2-0.1,0.3-0.2,0.3-0.2c0,0-0.1-0.1-0.3-0.2c-0.4-0.2-0.9-0.7-1.1-1.2l-0.2-0.4l0-3.3c0-2.8-0.1-3.4-0.2-3.7
	c-0.1-0.5-0.3-0.9-0.5-1c-0.1-0.1-0.1,0.3-0.1,4.8c0,4.6,0,4.9,0.2,5.3c0.1,0.2,0.2,0.5,0.4,0.7c0.2,0.2,0.3,0.3,0.3,0.3
	S31.8,45.5,32,45.3L32,45.3z M18.3,35.3c0,0,0.1-0.1,0.1-0.2c0-0.3-0.6-0.4-0.7-0.1C17.5,35.2,18.1,35.5,18.3,35.3z M19.9,35.3
	c0.1-0.1,0.1-0.3-0.1-0.4c-0.2-0.1-0.5,0-0.6,0.2C19.1,35.3,19.7,35.5,19.9,35.3z M21.2,34.7c0-0.3-0.1-0.3-0.3-0.2
	c-0.2,0.1-0.2,0.3,0,0.4C21.1,35.1,21.2,35,21.2,34.7z M16.8,34.9c0.2-0.1,0.1-0.4,0-0.5c-0.2-0.1-0.4-0.1-0.5,0
	c-0.1,0.1,0,0.4,0.2,0.5c0.1,0,0.2,0.1,0.2,0.1C16.7,35,16.7,34.9,16.8,34.9z M15.7,33.8c0-0.2-0.2-0.5-0.4-0.5
	c-0.2,0-0.2,0.4,0,0.5C15.5,34,15.7,34,15.7,33.8z M14.7,32.6c0-0.2-0.2-0.5-0.4-0.5c-0.2,0-0.2,0.3,0,0.5
	C14.5,32.8,14.7,32.8,14.7,32.6z M13.8,31.6c0.1-0.2-0.2-0.4-0.3-0.4c-0.2,0-0.2,0.2-0.1,0.4C13.6,31.7,13.8,31.7,13.8,31.6z
	 M12.9,30.8c0.1-0.1-0.2-0.3-0.3-0.3c-0.1,0-0.2,0.2-0.1,0.3C12.6,30.9,12.9,30.9,12.9,30.8z M32.6,29.7c1.1-0.1,1.8-0.3,2.5-0.5
	c2.6-0.9,3.9-2.7,4.1-5.7c0.1-0.8,0-1.4-0.3-2.1c-0.4-1-1.4-2.3-2.3-2.8c-1.1-0.6-2.5-0.8-5.7-0.5c-2.4,0.2-4.4,0.2-6.8,0
	c-4-0.3-5.3-0.1-6.6,1.2c-0.8,0.9-1.4,1.9-1.6,2.9c-0.2,1.1,0.1,2.8,0.7,4c0.3,0.6,1,1.4,1.6,1.8c1.2,0.9,2.9,1.4,5.2,1.7
	c1.4,0.2,1.4,0.2,5,0.1C31,29.8,32,29.8,32.6,29.7L32.6,29.7z M27,28.6c-0.5-0.2-1-0.7-1-1c0-0.2,0.2-0.3,0.3-0.1
	c0.2,0.4,0.5,0.6,0.8,0.7c0.5,0.1,1-0.1,1.2-0.5c0.1-0.2,0.2-0.3,0.4-0.3c0.2,0.1,0.1,0.2-0.1,0.6C28.4,28.6,27.6,28.9,27,28.6z
	 M27.1,26.6c-0.1-0.1-0.2-0.2-0.2-0.5c0-0.5,0.4-0.7,0.8-0.6c0.3,0.1,0.3,0.3,0.3,0.6C28.1,26.7,27.5,27,27.1,26.6L27.1,26.6z
	 M21.1,25.4c-0.4-0.1-0.6-0.3-0.9-0.7c-0.7-1-0.6-2.8,0.3-3.6c0.3-0.3,0.5-0.4,0.9-0.4c1.6,0,2.2,3.1,0.8,4.3
	c-0.2,0.1-0.4,0.3-0.5,0.3C21.4,25.4,21.3,25.4,21.1,25.4L21.1,25.4z M20.9,22.4c0.3-0.2,0.3-0.7,0-0.8c-0.4-0.1-0.7,0.2-0.6,0.6
	C20.4,22.5,20.6,22.6,20.9,22.4L20.9,22.4z M33.6,25.4c-0.4-0.1-0.6-0.3-0.8-0.7c-0.6-1-0.6-2.6,0.2-3.4c0.5-0.6,1.1-0.7,1.6-0.3
	c0.6,0.4,1,1.2,1,2.2c0,0.8-0.2,1.3-0.6,1.7C34.6,25.3,34.1,25.5,33.6,25.4L33.6,25.4z M33.7,22.3c0.2-0.2,0.1-0.5-0.1-0.6
	c-0.2-0.1-0.2-0.1-0.4,0c-0.2,0.1-0.3,0.5-0.1,0.6C33.3,22.5,33.6,22.5,33.7,22.3z"/>
<path class="st3" d="M23.6,46.6c-0.1-0.1-0.1-0.2-0.1-0.4c0-0.3,0.1-0.4,0.6-0.7c0.1-0.1,0.3-0.3,0.3-0.5c0.1-0.3,0.1-0.4,0.2-5.4
	l0-5.1l-0.1,0.1c-0.2,0.2-0.3,0.5-0.5,0.9c-0.1,0.3-0.1,1-0.1,3.7l0,3.4l-0.2,0.4c-0.5,1.1-1.7,1.7-3.4,1.7c-0.7,0-0.9-0.1-0.9-0.4
	c0-0.3,0.2-0.5,0.7-0.7c0.5-0.2,1-0.7,1.2-1.2c0.1-0.3,0.1-0.5,0.1-3.1v-2.7L20.8,37c-1.9,0.3-3.6,0.1-4.9-0.7
	c-0.7-0.5-1.4-1.2-2.1-2.5c-0.8-1.4-1.3-1.9-2.3-2.4c-0.7-0.4-1-0.7-1-0.9c0-0.3,0.5-0.5,1.2-0.5c1.3,0.1,2.4,0.9,3.4,2.3
	c0.8,1.2,1.6,1.8,2.6,2.2c0.9,0.3,2.4,0.2,3.5-0.3c0.3-0.2,0.4-0.2,0.5-0.5c0.2-0.7,0.6-1.5,1.2-2l0.5-0.5l-0.7-0.1
	c-4.3-0.6-7.5-2.2-9.1-4.7l-0.4-0.6l-0.6,0c-2.5,0-7.7,0.7-10.3,1.4c-0.4,0.1-0.7,0.1-0.7,0.1c-0.1-0.1,0-0.2,1.3-0.5
	c2.7-0.6,5.3-1,8.1-1.2c1.7-0.1,2.1-0.1,2.1-0.2c0,0-0.1-0.2-0.2-0.4l-0.2-0.4h-2.3c-3.1,0-5.5,0.2-7.9,0.6c-0.5,0.1-1,0.2-1,0.1
	c-0.2-0.2,1.1-0.5,3.3-0.7c1.9-0.2,3.2-0.3,5.4-0.3c1.3,0,2.3,0,2.3,0c0,0-0.1-0.2-0.1-0.5c-0.4-1.3-0.7-3.9-0.6-5.4
	c0.1-1.4,0.4-2.8,1-3.8c0.3-0.6,0.9-1.5,1.3-1.9l0.3-0.4l-0.1-0.4c-0.5-1.5-0.4-3.7,0.2-5.6l0.2-0.6l0.5,0c1.4-0.1,3.4,0.7,5.7,2.2
	l0.6,0.4l0.9-0.2c3.2-0.7,7.3-0.8,10.3-0.1L33.1,8l0.7-0.5c1.5-1,3.3-1.7,4.4-1.9c0.3,0,0.7-0.1,0.9-0.1l0.5,0l0.2,0.7
	c0.3,0.9,0.5,2.1,0.5,3c0,0.7-0.1,1.8-0.3,2.2c-0.1,0.2,0,0.2,0.1,0.4c0.5,0.4,1.3,1.6,1.7,2.4c0.8,1.5,1,2.7,1,4.8
	c0,1.9-0.2,3.5-0.4,4.6l-0.1,0.4l2.5,0c3.2,0,5.1,0.1,7.7,0.6c0.8,0.1,1.2,0.2,1.2,0.3c0,0.1,0,0.1,0,0.1c0,0-0.5,0-1-0.1
	c-2.4-0.4-4.8-0.6-8-0.6h-2.4l-0.2,0.4c-0.1,0.2-0.1,0.4-0.1,0.5c0,0,0.6,0,1.3,0.1c3.4,0.2,6.2,0.6,9.1,1.3
	c1.2,0.3,1.4,0.4,1.3,0.5c0,0-0.3,0-0.7-0.1c-2.7-0.7-7-1.3-10.4-1.4l-0.7,0l-0.2,0.4c-0.6,1.4-2,2.7-3.6,3.5
	c-1.5,0.8-3.6,1.3-5.7,1.5C32.3,31,32,31,32,31c0,0,0.1,0.2,0.3,0.4c0.7,0.6,1.1,1.3,1.4,2.4c0.1,0.5,0.1,0.8,0.2,4.5l0,4l0.2,0.4
	c0.2,0.5,0.7,0.9,1.1,1.1c0.4,0.2,0.6,0.4,0.6,0.6c0,0.3-0.2,0.4-0.9,0.4c-1.6,0-2.8-0.6-3.3-1.7l-0.2-0.4l0-3.3
	c0-2.8-0.1-3.4-0.2-3.7c-0.1-0.5-0.3-0.9-0.5-1c-0.1-0.1-0.1,0.3-0.1,4.8c0,5.7,0,5.4,0.7,6.1c0.3,0.3,0.4,0.4,0.4,0.6
	c0,0.7-1,0.8-2.3,0.1c-0.6-0.3-1.2-0.9-1.4-1.5l-0.2-0.4l0-5.1c0-3.5,0-5.2-0.1-5.2c-0.1-0.1-0.4-0.1-0.4,0c0,0-0.1,2.4-0.1,5.2
	c0,3.3-0.1,5.2-0.1,5.4c-0.3,1-1,1.7-2.1,2C24.4,46.8,23.8,46.8,23.6,46.6L23.6,46.6z M18.3,35.3c0.2-0.2-0.1-0.5-0.5-0.4
	c-0.1,0-0.2,0.1-0.2,0.2c-0.1,0.1,0,0.2,0.1,0.3C17.9,35.4,18.2,35.4,18.3,35.3z M19.9,35.2c0.1-0.1,0.1-0.1,0-0.3
	c-0.2-0.2-0.2-0.2-0.5-0.1c-0.2,0.1-0.3,0.3-0.2,0.4C19.4,35.4,19.8,35.4,19.9,35.2z M21.2,34.7c0-0.3,0-0.3-0.3-0.2
	c-0.2,0.1-0.2,0.3,0,0.4C21.1,35.1,21.2,35,21.2,34.7z M16.8,34.9c0.2-0.1,0.1-0.4-0.1-0.5c-0.3-0.2-0.5-0.1-0.5,0.1
	C16.2,34.8,16.5,35,16.8,34.9z M15.7,33.9c0.1-0.2-0.1-0.6-0.4-0.6c-0.2,0-0.3,0.3,0,0.5C15.4,34,15.6,34,15.7,33.9z M14.7,32.7
	c0.1-0.2-0.2-0.6-0.4-0.6c-0.2,0.1-0.1,0.4,0,0.5C14.5,32.8,14.6,32.8,14.7,32.7z M13.9,31.6c0.1-0.1-0.2-0.4-0.4-0.4
	c-0.1,0-0.2,0-0.2,0.2C13.3,31.6,13.7,31.8,13.9,31.6z M12.9,30.9c0.1-0.1-0.1-0.3-0.3-0.3c-0.2,0-0.2,0.2-0.1,0.3
	C12.7,31,12.8,31,12.9,30.9z M32.6,29.7c1.1-0.1,1.8-0.3,2.5-0.5c2.6-0.9,3.9-2.7,4.1-5.7c0.1-0.8,0-1.4-0.3-2.1
	c-0.4-1-1.4-2.3-2.3-2.8c-1.1-0.6-2.5-0.8-5.7-0.5c-2.4,0.2-4.4,0.2-6.8,0c-4-0.3-5.3-0.1-6.6,1.2c-0.8,0.9-1.4,1.9-1.6,2.9
	c-0.2,1.1,0.1,2.8,0.7,4c0.3,0.6,1,1.4,1.6,1.8c1.2,0.9,2.9,1.4,5.2,1.7c1.4,0.2,1.4,0.2,5,0.1C31,29.8,32,29.8,32.6,29.7L32.6,29.7
	z M27,28.6c-0.5-0.2-1-0.7-1-1c0-0.2,0.2-0.3,0.3-0.1c0.2,0.4,0.5,0.6,0.8,0.7c0.5,0.1,1-0.1,1.2-0.5c0.1-0.2,0.2-0.3,0.4-0.3
	c0.2,0.1,0.1,0.2-0.1,0.6C28.4,28.6,27.6,28.9,27,28.6z M27.1,26.6c-0.1-0.1-0.2-0.2-0.2-0.5c0-0.5,0.4-0.7,0.8-0.6
	c0.3,0.1,0.3,0.3,0.3,0.6C28.1,26.7,27.5,27,27.1,26.6L27.1,26.6z M21.1,25.4c-0.4-0.1-0.6-0.3-0.9-0.7c-0.7-1-0.6-2.8,0.3-3.6
	c0.3-0.3,0.5-0.4,0.9-0.4c1.6,0,2.2,3.1,0.8,4.3c-0.2,0.1-0.4,0.3-0.5,0.3C21.4,25.4,21.3,25.4,21.1,25.4L21.1,25.4z M20.9,22.4
	c0.3-0.2,0.3-0.7,0-0.8c-0.4-0.1-0.7,0.2-0.6,0.6C20.4,22.5,20.6,22.6,20.9,22.4L20.9,22.4z M33.6,25.4c-0.4-0.1-0.6-0.3-0.8-0.7
	c-0.6-1-0.6-2.6,0.2-3.4c0.5-0.6,1.1-0.7,1.6-0.3c0.6,0.4,1,1.2,1,2.2c0,0.8-0.2,1.3-0.6,1.7C34.6,25.3,34.1,25.5,33.6,25.4
	L33.6,25.4z M33.7,22.3c0.2-0.2,0.1-0.5-0.1-0.6c-0.2-0.1-0.2-0.1-0.4,0c-0.2,0.1-0.3,0.5-0.1,0.6C33.3,22.5,33.6,22.5,33.7,22.3z"
	/>
<path class="st4" d="M23.6,46.6c-0.1-0.1-0.1-0.2-0.1-0.4c0-0.3,0.1-0.4,0.6-0.7c0.1-0.1,0.3-0.3,0.3-0.5c0.1-0.3,0.1-0.4,0.2-5.4
	l0-5.1l-0.1,0.1c-0.2,0.2-0.3,0.5-0.5,0.9c-0.1,0.3-0.1,1-0.1,3.7l0,3.4l-0.2,0.4c-0.5,1.1-1.7,1.7-3.4,1.7c-0.7,0-0.9-0.1-0.9-0.4
	c0-0.3,0.2-0.5,0.7-0.7c0.5-0.2,1-0.7,1.2-1.2c0.1-0.3,0.1-0.5,0.1-3.1v-2.7L20.8,37c-1.9,0.3-3.6,0.1-4.9-0.7
	c-0.7-0.5-1.4-1.2-2.1-2.5c-0.8-1.4-1.3-1.9-2.3-2.4c-0.7-0.4-1-0.7-1-0.9c0-0.3,0.5-0.5,1.2-0.5c1.3,0.1,2.4,0.9,3.4,2.3
	c0.8,1.2,1.6,1.8,2.6,2.2c0.9,0.3,2.4,0.2,3.5-0.3c0.3-0.2,0.4-0.2,0.5-0.5c0.2-0.7,0.6-1.5,1.2-2l0.5-0.5l-0.7-0.1
	c-4.3-0.6-7.5-2.2-9.1-4.7l-0.4-0.6l-0.6,0c-2.5,0-7.7,0.7-10.3,1.4c-0.4,0.1-0.7,0.1-0.7,0.1c-0.1-0.1,0-0.2,1.3-0.5
	c2.7-0.6,5.3-1,8.1-1.2c1.7-0.1,2.1-0.1,2.1-0.2c0,0-0.1-0.2-0.2-0.4l-0.2-0.4h-2.3c-3.1,0-5.5,0.2-7.9,0.6c-0.5,0.1-1,0.2-1,0.1
	c-0.2-0.2,1.1-0.5,3.3-0.7c1.9-0.2,3.2-0.3,5.4-0.3c1.3,0,2.3,0,2.3,0c0,0-0.1-0.2-0.1-0.5c-0.4-1.3-0.7-3.9-0.6-5.4
	c0.1-1.4,0.4-2.8,1-3.8c0.3-0.6,0.9-1.5,1.3-1.9l0.3-0.4l-0.1-0.4c-0.5-1.5-0.4-3.7,0.2-5.6l0.2-0.6l0.5,0c1.4-0.1,3.4,0.7,5.7,2.2
	l0.6,0.4l0.9-0.2c3.2-0.7,7.3-0.8,10.3-0.1L33.1,8l0.7-0.5c1.5-1,3.3-1.7,4.4-1.9c0.3,0,0.7-0.1,0.9-0.1l0.5,0l0.2,0.7
	c0.3,0.9,0.5,2.1,0.5,3c0,0.7-0.1,1.8-0.3,2.2c-0.1,0.2,0,0.2,0.1,0.4c0.5,0.4,1.3,1.6,1.7,2.4c0.8,1.5,1,2.7,1,4.8
	c0,1.9-0.2,3.5-0.4,4.6l-0.1,0.4l2.5,0c3.2,0,5.1,0.1,7.7,0.6c0.8,0.1,1.2,0.2,1.2,0.3c0,0.1,0,0.1,0,0.1c0,0-0.5,0-1-0.1
	c-2.4-0.4-4.8-0.6-8-0.6h-2.4l-0.2,0.4c-0.1,0.2-0.1,0.4-0.1,0.5c0,0,0.6,0,1.3,0.1c3.4,0.2,6.2,0.6,9.1,1.3
	c1.2,0.3,1.4,0.4,1.3,0.5c0,0-0.3,0-0.7-0.1c-2.7-0.7-7-1.3-10.4-1.4l-0.7,0l-0.2,0.4c-0.6,1.4-2,2.7-3.6,3.5
	c-1.5,0.8-3.6,1.3-5.7,1.5C32.3,31,32,31,32,31c0,0,0.1,0.2,0.3,0.4c0.7,0.6,1.1,1.3,1.4,2.4c0.1,0.5,0.1,0.8,0.2,4.5l0,4l0.2,0.4
	c0.2,0.5,0.7,0.9,1.1,1.1c0.4,0.2,0.6,0.4,0.6,0.6c0,0.3-0.2,0.4-0.9,0.4c-1.6,0-2.8-0.6-3.3-1.7l-0.2-0.4l0-3.3
	c0-2.8-0.1-3.4-0.2-3.7c-0.1-0.5-0.3-0.9-0.5-1c-0.1-0.1-0.1,0.3-0.1,4.8c0,5.7,0,5.4,0.7,6.1c0.3,0.3,0.4,0.4,0.4,0.6
	c0,0.7-1,0.8-2.3,0.1c-0.6-0.3-1.2-0.9-1.4-1.5l-0.2-0.4l0-5.1c0-3.5,0-5.2-0.1-5.2c-0.1-0.1-0.4-0.1-0.4,0c0,0-0.1,2.4-0.1,5.2
	c0,3.3-0.1,5.2-0.1,5.4c-0.3,1-1,1.7-2.1,2C24.4,46.8,23.8,46.8,23.6,46.6L23.6,46.6z M18.3,35.3c0.2-0.2-0.1-0.5-0.5-0.4
	c-0.1,0-0.2,0.1-0.2,0.2c-0.1,0.1,0,0.2,0.1,0.3C17.9,35.4,18.2,35.4,18.3,35.3z M19.9,35.2c0.1-0.1,0.1-0.1,0-0.3
	c-0.2-0.2-0.2-0.2-0.5-0.1c-0.2,0.1-0.3,0.3-0.2,0.4C19.4,35.4,19.8,35.4,19.9,35.2z M21.2,34.7c0-0.3,0-0.3-0.3-0.2
	c-0.2,0.1-0.2,0.3,0,0.4C21.1,35.1,21.2,35,21.2,34.7z M16.8,34.9c0.2-0.1,0.1-0.4-0.1-0.5c-0.3-0.2-0.5-0.1-0.5,0.1
	C16.2,34.8,16.5,35,16.8,34.9z M15.7,33.9c0.1-0.2-0.1-0.6-0.4-0.6c-0.2,0-0.3,0.3,0,0.5C15.4,34,15.6,34,15.7,33.9z M14.7,32.7
	c0.1-0.2-0.2-0.6-0.4-0.6c-0.2,0.1-0.1,0.4,0,0.5C14.5,32.8,14.6,32.8,14.7,32.7z M13.9,31.6c0.1-0.1-0.2-0.4-0.4-0.4
	c-0.1,0-0.2,0-0.2,0.2C13.3,31.6,13.7,31.8,13.9,31.6z M12.9,30.9c0.1-0.1-0.1-0.3-0.3-0.3c-0.2,0-0.2,0.2-0.1,0.3
	C12.7,31,12.8,31,12.9,30.9z M30.1,29.8c2-0.1,3-0.2,4.1-0.5c3.2-0.8,4.7-2.6,4.9-6.1c0.1-1.4-0.2-2.3-0.9-3.3
	c-0.9-1.3-1.8-1.9-3.1-2.3c-0.7-0.2-2.6-0.2-4.4-0.1c-2.1,0.2-4.5,0.2-6.6,0c-3.6-0.3-5.1,0-6.3,1c-1.3,1.1-2.1,2.6-2.1,4.1
	c0,2,0.6,3.6,1.7,4.7C19.5,29.4,23.2,30.1,30.1,29.8L30.1,29.8z M26.8,28.5c-0.5-0.3-0.9-1-0.6-1c0.1,0,0.2,0.1,0.3,0.3
	c0.2,0.3,0.6,0.6,0.9,0.6c0.4,0,0.9-0.3,1-0.7c0.1-0.2,0.3-0.2,0.4-0.1c0,0.1-0.2,0.5-0.4,0.7C28.1,28.7,27.4,28.8,26.8,28.5
	L26.8,28.5z M27.3,26.7c-0.4-0.2-0.5-0.7-0.2-1c0.4-0.4,1-0.1,1,0.4C28.1,26.5,27.6,26.8,27.3,26.7L27.3,26.7z M20.8,25.2
	c-0.3-0.2-0.7-0.6-0.9-1.1c-0.2-0.5-0.2-1.6,0-2.2c0.3-1,1.2-1.5,1.9-1.2c0.8,0.4,1.3,1.6,1.1,2.8C22.7,24.9,21.7,25.7,20.8,25.2
	L20.8,25.2z M21,22.3c0.1-0.1,0.2-0.2,0.2-0.3c0-0.2-0.3-0.5-0.5-0.5c-0.2,0-0.5,0.3-0.5,0.5c0,0.2,0.3,0.5,0.5,0.5
	C20.8,22.5,20.9,22.4,21,22.3z M33.5,25.3c-1.3-0.6-1.5-3.4-0.2-4.2c0.5-0.4,1.1-0.4,1.6,0.1c0.8,0.7,1,2.2,0.5,3.4
	C34.8,25.2,34.1,25.6,33.5,25.3L33.5,25.3z M33.8,22.2c0.1-0.2,0.1-0.5-0.2-0.6c-0.4-0.2-0.8,0.2-0.6,0.6
	C33.3,22.5,33.6,22.5,33.8,22.2L33.8,22.2z"/>
<path class="st5" d="M23.6,46.6c-0.3-0.3-0.2-0.7,0.4-1.1c0.2-0.1,0.4-0.3,0.4-0.5c0.1-0.3,0.1-0.4,0.2-5.4c0-3.2,0-5.1,0-5.1
	c-0.1,0-0.4,0.4-0.5,0.8c-0.1,0.4-0.2,0.6-0.2,3.8c0,3.8,0,3.7-0.5,4.4c-0.5,0.8-1.7,1.3-3.1,1.3c-0.6,0-0.9-0.1-0.9-0.4
	c0-0.3,0.1-0.4,0.6-0.6c0.6-0.3,1-0.6,1.2-1.1l0.2-0.4l0-2.7l0-2.7l-0.2,0c-0.8,0.2-1.5,0.2-2.4,0.2c-1.2,0-1.6-0.1-2.5-0.6
	c-1.1-0.5-1.8-1.3-2.7-2.9c-0.7-1.2-1.3-1.8-2.3-2.4c-0.5-0.2-0.9-0.6-0.9-0.8c0-0.3,0.7-0.5,1.5-0.4c1.1,0.2,2.2,1,3,2.2
	c0.6,0.9,1,1.4,1.6,1.7c0.8,0.5,1.3,0.7,2.4,0.7c0.9,0,1.5-0.1,2.2-0.5c0.3-0.2,0.3-0.2,0.5-0.8c0.2-0.7,0.7-1.5,1.3-2l0.4-0.4
	l-1.1-0.2c-2.8-0.4-5.1-1.3-6.8-2.6c-0.8-0.6-1.3-1.2-1.9-2.1l-0.5-0.7l-0.6,0c-0.3,0-0.9,0.1-1.3,0.1c-2.7,0.1-6.6,0.7-8.9,1.4
	c-0.6,0.2-0.8,0.2-0.8,0.1c0-0.1,0-0.1,1.5-0.5c2.7-0.6,7.2-1.2,9.4-1.2c0.6,0,0.6,0,0.3-0.6l-0.1-0.3l-0.5,0
	c-1.2-0.1-4.6,0-6.7,0.2c-1.1,0.1-3.2,0.4-3.7,0.5c-0.2,0.1-0.4,0-0.3-0.1c0.1-0.1,2-0.4,3.2-0.5c2-0.2,3.2-0.3,5.6-0.3h2.2L12.5,24
	c-0.1-0.4-0.4-1.6-0.5-2.3c-0.2-1.1-0.2-4.2,0-5c0.3-1.6,1.2-3.3,2.2-4.3l0.2-0.2l-0.1-0.4c-0.2-0.7-0.3-1.3-0.3-2.4
	c0-1.1,0.1-1.8,0.5-3c0.2-0.8,0.3-0.8,0.8-0.8c1.4,0,3.7,0.9,5.8,2.3l0.4,0.3L22.1,8c2-0.5,3.8-0.6,6.1-0.6c1.7,0,2.6,0.1,4.1,0.4
	L33.1,8l0.7-0.5C34.7,7,36.2,6.3,37,6c1-0.4,2.2-0.5,2.6-0.4c0.2,0.1,0.5,1.1,0.7,2c0.2,1.3,0.2,2.6-0.1,3.7l-0.1,0.4l0.4,0.4
	c1.2,1.4,2,2.9,2.3,4.7c0.1,0.5,0.1,1,0.1,2.4c0,1,0,2.1-0.1,2.6c-0.1,0.7-0.3,1.9-0.4,2.2c0,0.1,0.1,0.1,2.3,0.1
	c2.5,0,3.8,0.1,5.8,0.3c1.2,0.1,3.2,0.4,3.2,0.5c0,0,0,0.1,0,0.1c0,0-0.2,0-0.5,0c-2.3-0.5-7.4-0.8-10-0.7l-1,0.1l-0.1,0.4
	c-0.1,0.2-0.1,0.4-0.1,0.5s0.5,0.1,1.2,0.1c3.2,0.1,7.1,0.7,9.9,1.5c0.4,0.1,0.5,0.2,0.5,0.2c0,0.1-0.1,0.1-0.5,0
	c-2.7-0.7-6.5-1.3-10.4-1.5l-0.9,0l-0.2,0.3c-0.3,0.6-0.9,1.5-1.5,2c-1.5,1.5-3.9,2.5-7.3,3c-0.4,0.1-0.8,0.1-0.9,0.1
	c-0.2,0-0.1,0.1,0.4,0.5c0.8,0.8,1.2,1.6,1.3,2.7c0,0.3,0.1,2,0.1,3.9c0,1.9,0,3.6,0.1,3.8c0.1,0.8,0.7,1.6,1.4,1.9
	c0.5,0.2,0.7,0.6,0.4,0.9c-0.1,0.1-0.2,0.1-0.9,0.1c-1.6-0.1-2.7-0.7-3.1-1.9c-0.1-0.3-0.1-0.6-0.2-3.7c0-2.9-0.1-3.4-0.2-3.7
	c-0.1-0.4-0.4-1-0.5-1c0,0-0.1,1.7,0,5l0,5l0.2,0.5c0.2,0.3,0.3,0.5,0.5,0.6c0.3,0.2,0.5,0.5,0.3,0.8c-0.2,0.4-0.7,0.5-1.5,0.2
	c-1-0.3-1.6-0.9-2-1.6L28,44.5l0-5.2c0-2.9-0.1-5.3-0.1-5.3c-0.1-0.1-0.4-0.1-0.5,0c-0.1,0.1-0.1,1.3-0.1,5.1c0,5.6,0,5.5-0.5,6.2
	c-0.4,0.6-1.1,1.1-2,1.3C24.2,46.8,23.8,46.7,23.6,46.6L23.6,46.6z M20,35.2c0.1-0.1,0-0.2-0.1-0.3c-0.2-0.3-0.7-0.1-0.7,0.2
	C19.2,35.4,19.8,35.5,20,35.2L20,35.2z M18.4,35.2c0.1-0.2-0.1-0.4-0.5-0.4c-0.2,0-0.3,0-0.3,0.2c0,0.1,0,0.2,0.1,0.3
	C17.9,35.4,18.3,35.4,18.4,35.2z M21.2,34.9c0-0.1,0-0.2,0-0.3c0-0.1,0-0.2-0.1-0.2c-0.1,0-0.2,0-0.3,0.1c-0.2,0.2,0,0.5,0.2,0.5
	C21.1,35,21.2,35,21.2,34.9z M16.9,34.8c0.1-0.1,0-0.2-0.1-0.3c-0.3-0.3-0.8-0.2-0.6,0.2C16.4,35,16.8,35,16.9,34.8L16.9,34.8z
	 M15.7,33.9c0.1-0.1,0-0.4-0.2-0.6c-0.3-0.2-0.5,0-0.4,0.4C15.3,34,15.5,34.1,15.7,33.9z M14.8,32.6c0.1-0.2-0.2-0.5-0.4-0.5
	c-0.2,0-0.2,0.1-0.2,0.3C14.2,32.8,14.7,32.9,14.8,32.6z M13.9,31.4c-0.1-0.2-0.4-0.3-0.5-0.2c-0.1,0.1-0.1,0.1,0,0.3
	C13.5,31.8,14,31.7,13.9,31.4z M13,30.9c0.1-0.2-0.1-0.3-0.3-0.3c-0.2,0-0.3,0.1-0.1,0.3C12.7,31,12.9,31,13,30.9z M31.8,29.8
	c3.1-0.3,5-1,6.1-2.5c0.8-1.1,1.3-2.7,1.3-4.5c0-1.5-0.5-2.7-1.7-3.9c-1.3-1.3-2.7-1.6-6.7-1.3c-2.2,0.2-4.3,0.2-6.6,0
	c-4.3-0.3-5.7,0.1-7.1,1.8c-0.5,0.6-0.8,1.2-1.1,1.9c-0.1,0.4-0.2,0.6-0.2,1.6c0,1,0,1.2,0.2,1.9c0.9,3.3,3.6,4.8,9.1,5.1
	C26.5,29.9,30.6,29.9,31.8,29.8L31.8,29.8z M26.8,28.5c-0.5-0.3-0.9-1-0.6-1c0.1,0,0.2,0.1,0.3,0.3c0.2,0.3,0.6,0.6,0.9,0.6
	c0.4,0,0.9-0.3,1-0.7c0.1-0.2,0.3-0.2,0.4-0.1c0,0.1-0.2,0.5-0.4,0.7C28.1,28.7,27.4,28.8,26.8,28.5L26.8,28.5z M27.3,26.7
	c-0.4-0.2-0.5-0.7-0.2-1c0.4-0.4,1-0.1,1,0.4C28.1,26.5,27.6,26.8,27.3,26.7L27.3,26.7z M20.8,25.2c-0.3-0.2-0.7-0.6-0.9-1.1
	c-0.2-0.5-0.2-1.6,0-2.2c0.3-1,1.2-1.5,1.9-1.2c0.8,0.4,1.3,1.6,1.1,2.8C22.7,24.9,21.7,25.7,20.8,25.2L20.8,25.2z M21,22.3
	c0.1-0.1,0.2-0.2,0.2-0.3c0-0.2-0.3-0.5-0.5-0.5c-0.2,0-0.5,0.3-0.5,0.5c0,0.2,0.3,0.5,0.5,0.5C20.8,22.5,20.9,22.4,21,22.3z
	 M33.5,25.3c-0.9-0.4-1.3-1.9-1-3.1c0.2-0.6,0.5-1,0.9-1.2c0.5-0.3,1.1-0.2,1.5,0.4c0.9,1.1,0.7,3.3-0.4,3.9
	C34.2,25.4,33.8,25.4,33.5,25.3L33.5,25.3z M33.8,22.2c0.1-0.2,0.1-0.5-0.2-0.6c-0.4-0.2-0.8,0.2-0.6,0.6
	C33.3,22.5,33.6,22.5,33.8,22.2L33.8,22.2z"/>
<path class="st6" d="M23.6,46.5c-0.3-0.3-0.2-0.5,0.3-1c0.7-0.6,0.6-0.3,0.6-6c0-3.9,0-5-0.1-4.9c-0.1,0-0.4,0.5-0.5,0.9
	c-0.1,0.3-0.1,0.8-0.2,3.8c0,2.2-0.1,3.5-0.1,3.6c-0.3,0.8-0.7,1.3-1.4,1.6c-0.6,0.3-1,0.4-1.8,0.4c-0.6,0-0.8,0-0.9-0.1
	c-0.4-0.2-0.2-0.6,0.5-0.9c0.5-0.2,1-0.8,1.2-1.2c0.1-0.3,0.1-0.6,0.2-3.1c0-2.2,0-2.7-0.1-2.7c-0.1,0-0.4,0-0.7,0.1
	c-0.3,0.1-1,0.1-1.4,0.1c-2.3,0-3.9-0.9-5.1-2.8c-1.1-1.9-1.5-2.4-2.6-3c-0.8-0.5-1-0.6-1-1c0-0.3,1.2-0.4,2-0.1
	c1,0.4,1.7,0.9,2.5,2.2c1.2,1.7,2.3,2.4,4.1,2.3c0.8,0,1.3-0.2,2.1-0.5c0.3-0.1,0.3-0.2,0.4-0.6c0.2-0.7,0.7-1.5,1.2-2.1
	c0.3-0.3,0.5-0.5,0.5-0.5c0,0-0.4,0-0.8-0.1c-3.1-0.4-5.6-1.4-7.4-2.9c-0.5-0.5-1.3-1.4-1.7-2c-0.3-0.5-0.1-0.5-1.9-0.4
	c-3.4,0.2-6.6,0.7-9.1,1.3c-0.7,0.2-1,0.2-0.9,0.1c0.1-0.1,1.6-0.4,2.8-0.7c2.2-0.4,4.6-0.7,7.1-0.9c0.8,0,1.5-0.1,1.5-0.1
	c0,0-0.1-0.2-0.2-0.5c-0.2-0.5-0.2-0.5-0.5-0.5c-0.2,0-1.4,0-2.6,0c-3,0.1-5.1,0.2-7.3,0.6C1.8,25,1.5,25.1,1.5,25
	c-0.1-0.1,0.6-0.2,2.1-0.4c2-0.3,3.3-0.4,6.1-0.4c2.5,0,2.8,0,2.7-0.2c-0.7-1.8-1-5.7-0.5-7.6c0.4-1.5,1-2.8,2-4l0.3-0.4l-0.1-0.4
	c-0.2-0.7-0.3-1.4-0.3-2.4c0-1.1,0.1-1.8,0.5-2.9c0.3-0.9,0.3-0.9,1.1-0.8c1.4,0.1,3.1,0.8,5.1,2c0.6,0.3,0.9,0.5,1,0.5
	c2.1-0.5,3.5-0.7,5.4-0.7c1.9-0.1,3.3,0.1,5.3,0.4L33.1,8l0.6-0.4c2-1.3,3.8-2,5.1-2.1c0.8-0.1,0.8,0,1.1,0.8
	c0.3,1.1,0.4,1.8,0.5,2.9c0,0.9-0.1,1.9-0.3,2.3c0,0.1,0.1,0.2,0.3,0.5c0.8,0.8,1.6,2.2,2,3.3c0.5,1.4,0.6,3.1,0.5,5.3
	c-0.1,1.2-0.3,2.6-0.4,3.1c0,0.1-0.1,0.3-0.1,0.3c0,0,1.3,0.1,2.9,0.1c3,0,4.2,0.1,6.3,0.4c1.5,0.2,2.2,0.4,2.1,0.4
	c0,0-0.5,0-1.2-0.1c-1.2-0.2-2.5-0.3-3.8-0.5c-1.2-0.1-5.5-0.2-6-0.1l-0.4,0.1l-0.1,0.4c-0.2,0.6-0.2,0.6,0.4,0.6
	c1.2,0,3.9,0.2,5.9,0.5c1.8,0.3,5.1,1,5.2,1.1c0.1,0.1-0.1,0.1-0.7-0.1c-2.8-0.7-6.4-1.2-10-1.4l-1,0l-0.2,0.4
	c-1.2,2.3-3.4,3.8-6.8,4.6c-0.4,0.1-1.3,0.2-1.9,0.3L31.9,31l0.5,0.5c0.6,0.6,1,1.2,1.2,2l0.2,0.6l0,4.1l0,4.1l0.2,0.5
	c0.3,0.6,0.6,1,1.1,1.2c0.4,0.2,0.6,0.5,0.5,0.7c-0.1,0.2-0.4,0.3-1.1,0.3c-1.8-0.1-2.9-0.9-3.2-2.3c0-0.3-0.1-1.5-0.1-3.3
	c0-2.2,0-3-0.1-3.3c-0.1-0.5-0.4-1.2-0.6-1.2c-0.1,0-0.1,0.9-0.1,4.9c0,4.6,0,5,0.1,5.3c0.1,0.3,0.3,0.6,0.7,0.9
	c0.3,0.2,0.3,0.5,0.1,0.7c-0.2,0.3-0.5,0.3-1.1,0.2c-1.1-0.3-2-0.9-2.3-1.7L28,44.5l0-5.2c0-5.2,0-5.2-0.2-5.3
	c-0.2-0.1-0.3-0.2-0.4-0.1c-0.1,0.1-0.1,0.7-0.1,5.3l0,5.2L27,44.8c-0.4,0.9-1,1.4-2,1.7C24.3,46.8,23.9,46.8,23.6,46.5L23.6,46.5z
	 M20,35.3c0.2-0.2,0-0.5-0.4-0.5c-0.2,0-0.5,0.2-0.4,0.4C19.3,35.4,19.7,35.5,20,35.3L20,35.3z M18.4,35.3c0.2-0.3-0.2-0.6-0.6-0.5
	c-0.2,0.1-0.2,0.4,0,0.5C17.9,35.4,18.3,35.4,18.4,35.3z M21.2,34.8c0.1-0.3,0-0.4-0.2-0.3c-0.1,0.1-0.4,0.2-0.4,0.3
	c0,0.1,0.2,0.3,0.3,0.3C21.1,35,21.2,35,21.2,34.8z M16.9,34.8c0.2-0.3-0.3-0.6-0.6-0.5c-0.2,0.1-0.2,0.3,0,0.5
	C16.5,35,16.8,35,16.9,34.8z M15.7,33.8c0.1-0.3-0.3-0.7-0.6-0.6c-0.1,0.1-0.2,0.2-0.1,0.4C15.2,34,15.7,34.1,15.7,33.8z M14.8,32.7
	c0.1-0.1,0-0.4-0.1-0.5c-0.1-0.1-0.4-0.1-0.5,0c-0.1,0.2-0.1,0.2,0.1,0.4C14.4,32.8,14.7,32.8,14.8,32.7z M13.8,31.7
	c0.1-0.1,0-0.4-0.2-0.5c-0.1-0.1-0.2-0.1-0.3,0c-0.1,0.1-0.1,0.2,0.1,0.4C13.6,31.7,13.7,31.8,13.8,31.7z M13,30.9
	c0.1-0.1-0.1-0.3-0.3-0.3c-0.2,0-0.3,0.2-0.1,0.3C12.7,31,12.9,31,13,30.9z M31,29.8c2.1-0.1,3.4-0.4,4.6-0.8c2.4-1,3.6-3,3.6-6.2
	c0-1-0.1-1.4-0.5-2.3c-0.3-0.7-0.8-1.3-1.4-1.9c-0.6-0.6-1.3-0.9-2.2-1.1c-0.8-0.2-2.6-0.2-4.7,0c-1.8,0.1-4,0.1-6,0
	c-1-0.1-2.1-0.1-3-0.1c-1.2,0-1.4,0.1-2,0.2c-0.8,0.2-1.3,0.5-1.8,1c-0.8,0.8-1.5,1.9-1.8,2.9c-0.1,0.4-0.1,0.7-0.1,1.5
	c0,1.3,0.2,1.9,0.7,2.9c1.1,2.3,3.7,3.5,8.3,3.8C26,29.9,29.6,29.9,31,29.8L31,29.8z"/>
</svg>
